<svg width="487" height="156" viewBox="0 0 487 156" fill="none" xmlns="http://www.w3.org/2000/svg">
<path d="M0 37.1344C0.499487 37.152 0.998982 36.6385 1.22762 37.4369C1.70249 39.959 0.0281483 41.9851 0.503013 44.5072L1.30852 44.6901C0.956765 46.6423 0.513563 48.6719 0.137188 50.7508C0.254439 54.5708 0.446724 58.3744 0.714055 62.1616C1.00953 62.0631 1.28038 62.0174 1.38942 62.3937C1.60399 63.9696 1.32259 66.1505 1.23817 68.4122C1.2839 68.7429 1.33314 69.077 1.37535 69.4077C1.53312 69.6022 1.75998 69.7282 2.00851 69.7594C1.98037 70.783 1.90298 71.6905 1.81856 72.5348C3.40496 83.629 5.27276 94.8956 7.11946 107.108C7.86166 109.69 8.60385 112.276 8.94505 114.763C9.25459 118.449 8.72696 123.155 8.63551 126.75C11.4847 126.198 12.8812 134.96 15.762 133.212C15.7022 135.607 15.6072 139.192 16.4127 139.389C18.8293 139.948 21.6187 141.791 23.0749 148.154C23.4267 150.645 22.3996 154.486 22.8885 155.348C23.6623 156.73 24.591 152.119 25.3683 153.501C26.2407 134.992 25.1925 117.169 25.2171 98.5327C23.9543 92.2012 23.3985 49.4035 23.9578 38.4148C23.9578 38.0807 23.9367 37.7465 23.9226 37.4158C24.0774 31.4185 23.8628 24.1372 22.7759 19.0649C22.1076 16.7363 21.2915 14.3726 20.5036 12.0299C20.0323 13.1239 19.5644 14.1404 19.0966 15.0198C19.1599 12.6209 19.2197 10.2219 18.7062 9.30032C17.4856 4.1964 16.061 7.08779 14.1334 9.05057C13.2857 10.4576 11.9807 8.5546 11.1154 10.7671C11.1576 9.17368 11.1751 8.37169 11.2209 6.77122C10.4118 6.58831 11.6324 11.6957 10.3098 10.5842C10.6194 9.04706 10.1234 7.32347 10.1656 5.73003C9.07167 6.28228 9.75408 11.2596 8.67772 11.0063C8.42797 10.1445 10.1445 6.52148 8.80083 6.21194C8.5335 6.15214 8.49129 7.74909 8.47018 8.54757C8.05863 3.62304 6.77826 0.921592 5.30442 5.40995C5.34311 3.85168 5.91295 1.6462 5.73004 0L5.70893 0C5.6632 0.823099 5.38532 2.24066 5.35718 3.00044L5.43105 0.186428C5.2411 0.334164 5.05819 0.503003 4.87176 0.678879C4.69251 1.37542 4.58524 2.08852 4.55167 2.80697C4.55167 2.18789 4.58333 1.56529 4.60092 0.942692C4.13972 1.43848 3.71864 1.97013 3.34164 2.53261C2.47633 4.74513 1.20651 6.86619 1.17485 8.06215C0.538179 17.7564 0.0879379 27.4718 0 37.1344Z" fill="url(#paint0_linear_570_1282)" fill-opacity="0.8"/>
<path d="M35.8035 37.1344C36.303 37.152 36.8024 36.6385 37.0346 37.4369C37.5059 39.959 35.8316 41.9851 36.3065 44.5072L37.1155 44.6901C36.7637 46.6423 36.3205 48.6719 35.9407 50.7508C36.0579 54.5708 36.2514 58.3744 36.521 62.1616C36.8165 62.0631 37.0874 62.0174 37.1929 62.3937C37.411 63.9696 37.1261 66.1505 37.0416 68.4122C37.0909 68.7429 37.1366 69.077 37.1823 69.4077C37.3388 69.602 37.5645 69.7281 37.812 69.7594C37.7874 70.783 37.71 71.6905 37.622 72.5348C39.2119 83.629 41.0797 94.8956 42.9229 107.108C43.6686 109.69 44.4108 112.276 44.752 114.763C45.0616 118.449 44.5339 123.155 44.439 126.75C47.2917 126.198 48.6846 134.96 51.569 133.212C51.5057 135.607 51.4107 139.192 52.2197 139.389C54.6363 139.948 57.4221 141.791 58.8784 148.154C59.2301 150.645 58.203 154.486 58.692 155.348C59.4658 156.73 60.398 152.119 61.1542 153.501C62.0301 134.992 60.9819 117.169 61.003 98.5327C59.7402 92.2012 59.1844 49.4035 59.7437 38.4148C59.7437 38.0807 59.7226 37.7465 59.7085 37.4158C59.8668 31.4185 59.6487 24.1372 58.5654 19.0649C57.8935 16.7363 57.0774 14.3726 56.2895 12.0299C55.8217 13.1239 55.3503 14.1404 54.8825 15.0198C54.9423 12.6209 55.0056 10.2219 54.4885 9.30032C53.2715 4.1964 51.8434 7.08779 49.9158 9.05057C49.068 10.4576 47.7666 8.5546 46.9012 10.7671C46.9399 9.17368 46.9611 8.37169 47.0033 6.77122C46.1978 6.58831 47.4148 11.6957 46.0922 10.5842C46.4018 9.04706 45.9093 7.32347 45.9515 5.73003C44.854 6.28228 45.5364 11.2596 44.4601 11.0063C44.2139 10.1445 45.9304 6.52148 44.5867 6.21194C44.3159 6.15214 44.2772 7.74909 44.2561 8.54757C43.841 3.62304 42.5606 0.921592 41.0903 5.40995C41.1325 3.85168 41.7023 1.6462 41.5159 0L41.4948 0C41.4491 0.823099 41.1712 2.24066 41.1431 3.00044C41.1677 2.0683 41.1923 1.12912 41.2169 0.186428C41.027 0.334164 40.8405 0.503003 40.6541 0.678879C40.4743 1.37519 40.3682 2.08847 40.3376 2.80697C40.3376 2.18789 40.3692 1.56529 40.3833 0.942692C39.9232 1.43857 39.5033 1.97021 39.1275 2.53261C38.2587 4.74513 36.9889 6.86619 36.9572 8.06215C36.3452 17.7564 35.8949 27.4718 35.8035 37.1344Z" fill="url(#paint1_linear_570_1282)" fill-opacity="0.8"/>
<path d="M115.393 104.533V48.0525H146.538C149.335 48.0525 151.81 48.6711 153.961 49.9083C156.167 51.1455 157.888 52.8399 159.125 54.9915C160.416 57.1432 161.062 59.6445 161.062 62.4954C161.062 64.3781 160.658 66.18 159.851 67.9014C159.098 69.6227 158.049 71.1288 156.705 72.4198C155.36 73.657 153.8 74.6252 152.025 75.3245C154.069 75.9162 155.871 76.9113 157.431 78.3099C159.045 79.7085 160.309 81.376 161.223 83.3125C162.138 85.2489 162.595 87.3199 162.595 89.5253C162.595 92.43 161.922 95.012 160.578 97.2712C159.287 99.5304 157.485 101.306 155.172 102.596C152.912 103.887 150.304 104.533 147.345 104.533H115.393ZM124.995 95.9802H144.763C146.377 95.9802 147.802 95.6306 149.039 94.9313C150.277 94.1782 151.218 93.1831 151.864 91.9459C152.563 90.6549 152.912 89.3101 152.912 87.9116C152.912 86.4592 152.563 85.1413 151.864 83.9579C151.164 82.7207 150.196 81.7256 148.959 80.9725C147.722 80.2195 146.269 79.8429 144.602 79.8429H124.995V95.9802ZM124.995 71.6936H143.553C145.059 71.6936 146.404 71.344 147.587 70.6447C148.824 69.9454 149.766 69.031 150.411 67.9014C151.11 66.718 151.46 65.4539 151.46 64.1091C151.46 62.7105 151.137 61.4465 150.492 60.3168C149.846 59.1872 148.932 58.2728 147.749 57.5735C146.619 56.8742 145.301 56.5246 143.795 56.5246H124.995V71.6936ZM171.488 104.533V63.3829L180.767 63.3829V104.533H171.488ZM176.087 57.6542C174.473 57.6542 173.075 57.0625 171.891 55.8791C170.708 54.6957 170.116 53.2971 170.116 51.6834C170.116 50.0697 170.708 48.6711 171.891 47.4877C173.075 46.3043 174.473 45.7126 176.087 45.7126C177.755 45.7126 179.153 46.3043 180.283 47.4877C181.466 48.6711 182.058 50.0697 182.058 51.6834C182.058 53.2971 181.466 54.6957 180.283 55.8791C179.153 57.0625 177.755 57.6542 176.087 57.6542ZM198.109 120.912V113.005H218.764C220.163 113.005 221.239 112.575 221.992 111.714C222.799 110.853 223.202 109.778 223.202 108.487V97.836H223.122C221.938 99.2883 220.674 100.552 219.329 101.628C217.984 102.65 216.451 103.457 214.73 104.049C213.063 104.587 211.207 104.856 209.163 104.856C205.397 104.856 202.035 103.968 199.077 102.193C196.118 100.418 193.779 97.9436 192.057 94.7699C190.39 91.5425 189.556 87.8578 189.556 83.7159C189.556 79.6816 190.39 76.0776 192.057 72.9039C193.779 69.6765 196.226 67.1214 199.4 65.2387C202.573 63.356 206.446 62.4147 211.019 62.4147C215.376 62.4147 219.141 63.3291 222.315 65.158C225.542 66.9869 228.043 69.5689 229.818 72.9039C231.594 76.1852 232.481 80.0312 232.481 84.4421V108.89C232.481 112.602 231.405 115.533 229.254 117.685C227.102 119.836 224.17 120.912 220.459 120.912H198.109ZM210.938 96.9484C213.412 96.9484 215.537 96.3836 217.312 95.254C219.141 94.0706 220.54 92.5107 221.508 90.5742C222.53 88.584 223.041 86.3785 223.041 83.9579C223.041 81.376 222.557 79.063 221.588 77.0189C220.62 74.9749 219.222 73.3611 217.393 72.1777C215.618 70.9405 213.466 70.3219 210.938 70.3219C208.463 70.3219 206.312 70.9405 204.483 72.1777C202.708 73.3611 201.336 74.9749 200.368 77.0189C199.4 79.0092 198.916 81.2684 198.916 83.7966C198.916 86.2172 199.4 88.4226 200.368 90.4128C201.336 92.4031 202.708 93.9899 204.483 95.1733C206.312 96.3567 208.463 96.9484 210.938 96.9484ZM264.785 104.533V96.0609H289.072C290.632 96.0609 291.977 95.6844 293.106 94.9313C294.29 94.1782 295.204 93.21 295.85 92.0266C296.549 90.7894 296.898 89.4984 296.898 88.1536C296.898 86.7013 296.576 85.3834 295.93 84.2C295.285 83.0166 294.37 82.0753 293.187 81.376C292.057 80.6767 290.739 80.3271 289.233 80.3271H279.147C275.974 80.3271 273.123 79.6816 270.595 78.3906C268.12 77.0458 266.157 75.19 264.705 72.8232C263.252 70.4564 262.526 67.6593 262.526 64.4318C262.526 61.2044 263.225 58.3804 264.624 55.9598C266.022 53.4854 267.932 51.5489 270.353 50.1504C272.773 48.7518 275.517 48.0525 278.583 48.0525L302.869 48.0525V56.5246L279.47 56.5246C278.072 56.5246 276.808 56.8742 275.678 57.5735C274.548 58.2728 273.661 59.1872 273.015 60.3168C272.424 61.4465 272.128 62.6567 272.128 63.9477C272.128 65.2925 272.424 66.5297 273.015 67.6593C273.661 68.7351 274.521 69.6227 275.597 70.3219C276.727 70.9674 277.991 71.2902 279.39 71.2902H289.717C293.16 71.2902 296.118 71.9626 298.593 73.3073C301.121 74.6521 303.058 76.5079 304.402 78.8747C305.801 81.2415 306.5 83.9579 306.5 87.024C306.5 90.628 305.774 93.7479 304.322 96.3836C302.923 98.9656 300.987 100.983 298.512 102.435C296.092 103.834 293.348 104.533 290.282 104.533H264.785ZM315.21 104.533V45.6319H324.489V67.4979C326.157 65.7228 328.093 64.4318 330.299 63.625C332.504 62.8181 334.737 62.4147 336.996 62.4147C340.761 62.4147 343.962 63.2216 346.597 64.8353C349.287 66.3952 351.331 68.5737 352.73 71.3709C354.128 74.1142 354.827 77.261 354.827 80.8112V104.533H345.629V80.8919C345.629 78.794 345.118 76.9651 344.096 75.4052C343.128 73.7915 341.837 72.5543 340.223 71.6936C338.663 70.7792 336.915 70.3219 334.979 70.3219C333.15 70.3219 331.428 70.7523 329.815 71.6129C328.201 72.4736 326.91 73.6839 325.942 75.2438C324.974 76.8038 324.489 78.5789 324.489 80.5691V104.533H315.21ZM382.657 105.501C378.73 105.501 375.341 104.533 372.49 102.596C369.639 100.66 367.434 98.0781 365.874 94.8506C364.368 91.5694 363.615 87.9654 363.615 84.0386C363.615 79.9505 364.475 76.2927 366.197 73.0653C367.972 69.784 370.473 67.2021 373.7 65.3194C376.982 63.3829 380.882 62.4147 385.4 62.4147C389.865 62.4147 393.657 63.3829 396.777 65.3194C399.95 67.2021 402.371 69.784 404.039 73.0653C405.76 76.2927 406.621 79.8967 406.621 83.8773V104.533H397.342V96.8678H397.18C396.373 98.3739 395.324 99.7994 394.033 101.144C392.742 102.435 391.156 103.484 389.273 104.291C387.39 105.098 385.185 105.501 382.657 105.501ZM385.158 97.5939C387.579 97.5939 389.676 97.0022 391.451 95.8188C393.28 94.5816 394.706 92.941 395.728 90.897C396.75 88.7991 397.234 86.4592 397.18 83.8773C397.18 81.2953 396.696 79.0092 395.728 77.0189C394.76 74.9749 393.388 73.3611 391.613 72.1777C389.838 70.9405 387.713 70.3219 385.239 70.3219C382.657 70.3219 380.451 70.9405 378.622 72.1777C376.793 73.3611 375.395 74.9749 374.427 77.0189C373.458 79.063 372.974 81.376 372.974 83.9579C372.974 86.4861 373.458 88.7991 374.427 90.897C375.395 92.941 376.767 94.5816 378.542 95.8188C380.371 97.0022 382.576 97.5939 385.158 97.5939ZM417.4 104.533V75.0824C417.4 71.4247 418.422 68.5737 420.466 66.5297C422.564 64.4318 425.442 63.3829 429.1 63.3829L439.024 63.3829V71.2902H430.794C429.503 71.2902 428.481 71.6667 427.728 72.4198C427.029 73.1729 426.679 74.1949 426.679 75.4859V104.533H417.4ZM466.276 104.533C461.65 104.533 457.589 103.672 454.092 101.951C450.65 100.176 447.96 97.7553 446.024 94.6892C444.087 91.5694 443.119 87.9923 443.119 83.9579C443.119 79.7085 443.98 75.97 445.701 72.7425C447.422 69.5151 449.789 66.9869 452.801 65.158C455.814 63.3291 459.283 62.4147 463.21 62.4147C467.621 62.4147 471.252 63.356 474.103 65.2387C476.954 67.1214 479.051 69.6496 480.396 72.8232C481.795 75.9969 482.494 79.5471 482.494 83.4738C482.494 84.0117 482.467 84.6303 482.413 85.3296C482.36 86.0289 482.279 86.5668 482.171 86.9433H452.963C453.286 89.095 454.066 90.897 455.303 92.3493C456.54 93.7479 458.1 94.8237 459.983 95.5768C461.865 96.2761 463.963 96.6257 466.276 96.6257H477.33V104.533H466.276ZM452.882 80.6498H473.215C473.161 79.6278 473 78.6057 472.731 77.5837C472.516 76.5617 472.139 75.5935 471.601 74.679C471.117 73.7646 470.472 72.9846 469.665 72.3391C468.912 71.6398 467.997 71.1019 466.922 70.7254C465.846 70.2951 464.609 70.0799 463.21 70.0799C461.596 70.0799 460.171 70.4026 458.934 71.0481C457.696 71.6398 456.648 72.4467 455.787 73.4687C454.926 74.437 454.254 75.5666 453.77 76.8575C453.339 78.0947 453.044 79.3588 452.882 80.6498Z" fill="#111714"/>
<defs>
<linearGradient id="paint0_linear_570_1282" x1="12.8579" y1="0" x2="12.8579" y2="155.609" gradientUnits="userSpaceOnUse">
<stop offset="0.25" stop-color="#1DBF73"/>
<stop offset="1" stop-color="#0071D7"/>
</linearGradient>
<linearGradient id="paint1_linear_570_1282" x1="48.6537" y1="0" x2="48.6537" y2="155.609" gradientUnits="userSpaceOnUse">
<stop offset="0.25" stop-color="#1DBF73"/>
<stop offset="1" stop-color="#0071D7"/>
</linearGradient>
</defs>
</svg>
